<?xml version="1.0" encoding="utf-8"?>
<!-- Generator: Adobe Illustrator 23.0.5, SVG Export Plug-In . SVG Version: 6.00 Build 0)  -->
<svg version="1.1" id="Capa_1" xmlns="http://www.w3.org/2000/svg" xmlns:xlink="http://www.w3.org/1999/xlink" x="0px" y="0px"
	 viewBox="0 0 50 50" style="enable-background:new 0 0 50 50;" xml:space="preserve">
<style type="text/css">
	.st0{fill:#0091EA;}
</style>
<path class="st0" d="M43.3,2.5L43.3,2.5h-21c-3.2,0-5.8,2.6-5.8,5.8v1.9c0,1.1,0.9,1.9,1.9,1.9c1.1,0,1.9-0.9,1.9-1.9V8.3
	c0-1.1,0.9-1.9,1.9-1.9h9l-0.6,0.2C29,7.1,28,8.6,28,10.3v29.1h-5.8c-1.1,0-1.9-0.9-1.9-1.9v-3.9c0-1.1-0.9-1.9-1.9-1.9
	c-1.1,0-1.9,0.9-1.9,1.9v3.9c0,3.2,2.6,5.8,5.8,5.8h5.8v1.9c0,2.1,1.7,3.9,3.9,3.9c0.4,0,0.8-0.1,1.2-0.2L44.8,45
	c1.6-0.5,2.6-2,2.6-3.7V6.4C47.5,4.1,45.6,2.3,43.3,2.5L43.3,2.5z"/>
<path class="st0" d="M21.7,20.5L14,12.8c-0.6-0.6-1.4-0.7-2.1-0.4c-0.7,0.3-1.2,1-1.2,1.8V20H2.9C1.8,20,1,20.9,1,21.9
	c0,1.1,0.9,1.9,1.9,1.9h7.8v5.8c0,0.8,0.5,1.5,1.2,1.8s1.6,0.1,2.1-0.4l7.7-7.8C22.5,22.5,22.5,21.3,21.7,20.5L21.7,20.5z"/>
</svg>
