<?xml version="1.0" encoding="utf-8"?>
<!-- Generator: Adobe Illustrator 22.1.0, SVG Export Plug-In . SVG Version: 6.00 Build 0)  -->
<svg version="1.1" id="Capa_1" xmlns="http://www.w3.org/2000/svg" xmlns:xlink="http://www.w3.org/1999/xlink" x="0px" y="0px"
	 viewBox="0 0 64 64" style="enable-background:new 0 0 64 64;" xml:space="preserve">
<style type="text/css">
	.st0{fill:url(#SVGID_1_);}
	.st1{fill:#FFFFFF;}
	.st2{fill:none;stroke:#FFFFFF;stroke-width:2;stroke-miterlimit:10;}
	.st3{fill:url(#SVGID_2_);}
	.st4{fill:url(#SVGID_3_);}
	.st5{fill:url(#SVGID_4_);}
	.st6{fill:url(#SVGID_5_);}
	.st7{fill:url(#SVGID_6_);}
	.st8{fill:url(#SVGID_7_);}
	.st9{fill:url(#SVGID_8_);}
	.st10{fill:url(#SVGID_9_);}
	.st11{fill:#202D84;}
	.st12{fill:#5E6362;}
</style>
<g>
	<g>
		<path class="st1" d="M41.1,60.5H22.9c-1.9,0-4.9-0.5-6.7-1l-3.8-1.2c-2.4-0.8-4.2-3.3-4.2-5.8V27.9c0-2.6,2.1-5.5,4.9-5.5h4.6
			v-2.7C17.7,9.4,22.9,3.5,32,3.5s14.3,5.9,14.3,16.2v2.7h3.9c2.7,0,5.5,2.8,5.5,5.5v24.6c0,2.5-1.8,5-4.2,5.8l-3.8,1.2
			C46,60.1,43.1,60.5,41.1,60.5z M13.1,25.9c-0.6,0-1.4,1.1-1.4,2v24.6c0,1,0.9,2.2,1.8,2.5l3.8,1.2c1.5,0.5,4.1,0.9,5.6,0.9h18.3
			c1.6,0,4.1-0.4,5.6-0.9l3.8-1.2c0.9-0.3,1.8-1.5,1.8-2.5V27.9c0-0.8-1.3-2-2-2h-7.4v-6.2C42.9,11.3,39.2,7,32,7
			s-10.9,4.3-10.9,12.7v6.2H13.1z M40,25.9H24v-7.4c0-5.4,3.1-8.7,8-8.7s8,3.3,8,8.7V25.9z M27.4,22.4h9.1v-3.9
			c0-2.4-0.8-5.2-4.6-5.2s-4.6,2.8-4.6,5.2V22.4z"/>
	</g>
	<path class="st1" d="M32.2,48c-4.3,0-7.9-3.5-7.9-7.9s3.5-7.9,7.9-7.9s7.9,3.5,7.9,7.9S36.6,48,32.2,48z M32.2,35.8
		c-2.4,0-4.4,2-4.4,4.4c0,2.4,2,4.4,4.4,4.4s4.4-2,4.4-4.4C36.6,37.7,34.7,35.8,32.2,35.8z"/>
</g>
</svg>
