<?xml version="1.0" encoding="utf-8"?>
<!-- Generator: Adobe Illustrator 22.1.0, SVG Export Plug-In . SVG Version: 6.00 Build 0)  -->
<svg version="1.1" id="Capa_1" xmlns="http://www.w3.org/2000/svg" xmlns:xlink="http://www.w3.org/1999/xlink" x="0px" y="0px"
	 viewBox="0 0 64 64" style="enable-background:new 0 0 64 64;" xml:space="preserve">
<style type="text/css">
	.st0{fill:url(#SVGID_1_);}
	.st1{fill:#FFFFFF;}
	.st2{fill:none;stroke:#FFFFFF;stroke-width:2;stroke-miterlimit:10;}
	.st3{fill:url(#SVGID_2_);}
	.st4{fill:url(#SVGID_3_);}
	.st5{fill:url(#SVGID_4_);}
	.st6{fill:url(#SVGID_5_);}
	.st7{fill:url(#SVGID_6_);}
	.st8{fill:url(#SVGID_7_);}
	.st9{fill:url(#SVGID_8_);}
	.st10{fill:url(#SVGID_9_);}
	.st11{fill:#202D84;}
	.st12{fill:#5E6362;}
</style>
<g>
	<path class="st1" d="M32,31.5c-6.9,0-12.4-6.6-12.4-14.8C19.6,9.9,21,2,32,2s12.4,7.9,12.4,14.8C44.4,24.9,38.9,31.5,32,31.5z
		 M32,5.3c-7.7,0-9.2,4.2-9.2,11.5c0,6.3,4.1,11.5,9.2,11.5s9.2-5.2,9.2-11.5C41.2,9.5,39.7,5.3,32,5.3z"/>
	<path class="st1" d="M11.6,54.4l0-1.4l-1.6,0c0-0.1,0-0.1,0-0.2v0c0-0.4,0.1-1,0.8-1.4l0.8-0.5l0.8,0.5c0.7,0.4,0.8,1,0.8,1.5h0h0
		c0,0.1,0,0.1,0,0.2l-1.6,0L11.6,54.4z"/>
	<path class="st1" d="M52.4,54.6l0-1.2l-1.6,0c0-0.1,0-0.2,0-0.2l0-0.1c0-0.5,0.2-1.1,0.8-1.5l0.8-0.5l0.8,0.5
		c0.8,0.5,0.8,1.4,0.8,1.9l-1.6,0L52.4,54.6z"/>
	<path class="st1" d="M32,62c-17.9,0-21.5-6.3-21.9-7l-0.2-0.3l0-1.7l1,0l-1-0.1c0-0.1,0-0.3,0-0.9c0.2-12.9,2.5-17.3,15.8-19.7
		l1-0.2l0.6,0.8c0,0,1.4,1.6,4.6,1.6s4.6-1.6,4.6-1.7l0.6-0.7l1,0.1C51.7,34.8,53.8,39,54,52.4l0,0c0,0.5,0,0.7,0,0.8l-1.3,0.1
		l1.3,0L53.9,55C53.5,55.7,49.9,62,32,62z M13.2,53.8c0.8,1,4.9,4.9,18.8,4.9c13.8,0,17.9-3.9,18.8-4.9l0-0.5c0,0,0-0.1,0-0.1l0,0h0
		c0-0.3,0-0.5,0-0.8l0,0c-0.2-11.7-1.3-14.7-12.3-16.8c-1,0.9-3.1,2.1-6.4,2.1s-5.4-1.3-6.4-2.1c-10.9,2.1-12.1,5.1-12.3,16.4
		c0,0.3,0,0.6,0,0.9h0h0c0,0,0,0,0,0h0L13.2,53.8z"/>
</g>
</svg>
